#!OML:ASF E:\Mandelcareful walks\Project 1\Capture day 1\Session 1\Subject1.ASF
:FULLY-SPECIFIED
:DEGREES
877
root 21.4721 16.0716 -0.232975 -919.993 96.269 -926.56
lowerback 23.7416 2.82167 -0.749419
upperback 9.84336 4.18469 -0.900235
thorax -2.35958 2.37912 -1.59684
lowerneck -26.0015 0.900558 -4.17299
upperneck 25.3647 3.46416 -0.888727
head 12.7362 1.03288 0.992188
rclavicle -1.61016e-014 -5.96354e-016
rhumerus -18.971 6.70999 -79.7433
rradius 46.6159
rwrist -20.6223
rhand -13.6725 -27.4344
rfingers 7.12502
rthumb 12.4449 -57.0439
lclavicle -1.61016e-014 -5.96354e-016
lhumerus -18.8461 -8.75378 81.7652
lradius 41.968
lwrist 18.4555
lhand -22.6696 -13.1355
lfingers 7.12502
lthumb 3.76216 16.811
rfemur -1.54742 -2.75705 11.2812
rtibia 36.5257
rfoot -15.8116 -8.83574
rtoes -7.8037
lfemur -40.4006 15.776 -18.5339
ltibia 50.6035
lfoot -14.3209 4.34805
ltoes 2.41137
878
root 21.5891 16.0661 -0.344636 -918.591 96.4998 -925.165
lowerback 23.94 2.97864 -1.18962
upperback 9.82953 4.28681 -0.926371
thorax -2.49535 2.41826 -1.41565
lowerneck -26.0799 0.659104 -4.53048
upperneck 25.3221 3.11697 -0.412795
head 12.7234 0.911472 1.17178
rclavicle 1.05356e-014 2.60408e-014
rhumerus -18.639 7.2981 -79.7975
rradius 47.0923
rwrist -20.9875
rhand -13.8649 -27.9353
rfingers 7.12502
rthumb 12.2594 -57.556
lclavicle 1.05356e-014 2.60408e-014
lhumerus -18.3496 -8.99062 81.5662
lradius 41.8618
lwrist 19.1865
lhand -23.416 -13.1829
lfingers 7.12502
lthumb 3.04137 16.7751
rfemur -3.00692 -3.0938 10.7469
rtibia 39.3609
rfoot -14.5265 -9.20969
rtoes -6.95976
lfemur -40.1005 15.8711 -18.9516
ltibia 50.9662
lfoot -15.2605 4.31426
ltoes 2.71874
879
root 21.7006 16.0623 -0.45012 -918.458 96.3815 -924.932
lowerback 24.2754 2.97794 -1.54542
upperback 9.84822 4.20964 -0.929459
thorax -2.66057 2.37473 -1.21931
lowerneck -26.3517 0.439815 -4.6974
upperneck 25.4928 2.81642 -0.155096
head 12.8447 0.792578 1.24926
rclavicle -4.79071e-014 7.15625e-015
rhumerus -18.3084 7.80468 -79.8781
rradius 47.5308
rwrist -21.2788
rhand -14.2349 -27.5514
rfingers 7.12502
rthumb 11.9026 -57.1931
lclavicle -4.79071e-014 7.15625e-015
lhumerus -17.766 -9.2872 81.3475
lradius 41.7075
lwrist 20.0881
lhand -24.324 -13.0497
lfingers 7.12502
lthumb 2.16447 16.9191
rfemur -4.28512 -3.70264 10.3044
rtibia 42.1977
rfoot -13.3799 -9.8812
rtoes -5.75169
lfemur -39.6784 15.6366 -19.3222
ltibia 51.2374
lfoot -16.0109 4.22847
ltoes 3.24594
880
root 21.8135 16.0655 -0.548743 -919.042 96.1428 -925.329
lowerback 24.5681 2.94116 -1.83643
upperback 9.94339 4.11143 -0.87915
thorax -2.71946 2.3251 -0.989607
lowerneck -26.5221 0.171594 -4.93133
upperneck 25.5367 2.4787 0.0518696
head 12.8985 0.647816 1.30857
rclavicle 2.44505e-014 2.36554e-014
rhumerus -18.036 8.12182 -79.8752
rradius 48.1336
rwrist -21.5113
rhand -14.3398 -27.362
rfingers 7.12502
rthumb 11.8014 -57.0095
lclavicle 2.44505e-014 2.36554e-014
lhumerus -17.0723 -9.37605 81.1003
lradius 41.5001
lwrist 20.3846
lhand -24.1766 -12.6247
lfingers 7.12502
lthumb 2.30677 17.3426
rfemur -5.45921 -4.43835 9.9433
rtibia 44.9756
rfoot -12.2635 -10.6222
rtoes -4.37755
lfemur -39.1371 15.3381 -19.6258
ltibia 51.4601
lfoot -16.6345 4.04825
ltoes 3.98268
881
root 21.9229 16.0724 -0.644578 -919.118 96.3243 -925.36
lowerback 24.6843 3.04119 -2.12981
upperback 9.96496 4.17608 -0.828976
thorax -2.77308 2.34952 -0.793441
lowerneck -26.556 -0.0325334 -5.05507
upperneck 25.4833 2.20767 0.151033
head 12.8888 0.531313 1.31739
rclavicle -2.70347e-014 -3.73715e-014
rhumerus -17.7725 8.49918 -79.919
rradius 48.681
rwrist -21.7872
rhand -14.2852 -27.7101
rfingers 7.12502
rthumb 11.8541 -57.3546
lclavicle -2.70347e-014 -3.73715e-014
lhumerus -16.5307 -9.22627 80.8019
lradius 41.4423
lwrist 20.0572
lhand -23.5318 -12.0815
lfingers 7.12502
lthumb 2.92956 17.8781
rfemur -7.01939 -4.96861 9.71452
rtibia 47.6788
rfoot -10.9745 -11.3205
rtoes -2.26167
lfemur -38.7764 15.4801 -19.8602
ltibia 51.7101
lfoot -17.1909 3.89599
ltoes 4.72543
882
root 22.0305 16.0707 -0.730196 -921.071 96.2718 -927.103
lowerback 24.9283 3.00368 -2.3288
upperback 9.99908 4.08844 -0.752357
thorax -2.87002 2.30339 -0.588777
lowerneck -26.4754 -0.132879 -5.03034
upperneck 25.4067 2.01455 0.24653
head 12.8461 0.464525 1.31339
rclavicle 2.52457e-014 -3.97569e-014
rhumerus -17.656 8.89419 -80.1139
rradius 49.1997
rwrist -21.9952
rhand -14.1773 -27.7701
rfingers 7.12502
rthumb 11.9581 -57.4085
lclavicle 2.52457e-014 -3.97569e-014
lhumerus -16.1939 -9.18032 80.4748
lradius 41.5278
lwrist 19.9832
lhand -23.5348 -12.1812
lfingers 7.12502
lthumb 2.92658 17.7785
rfemur -8.16391 -5.74458 9.66633
rtibia 50.1697
rfoot -10.0252 -12.0769
rtoes -0.11451
lfemur -38.2793 15.4271 -19.9172
ltibia 51.9876
lfoot -17.7152 3.67085
ltoes 5.29787
883
root 22.1206 16.0603 -0.817403 -920.941 96.693 -927.054
lowerback 24.8462 3.13323 -2.56595
upperback 9.95396 4.19314 -0.749011
thorax -2.89521 2.34518 -0.476518
lowerneck -26.1129 -0.214191 -5.12168
upperneck 25.122 1.82735 0.480917
head 12.6615 0.41422 1.37878
rclavicle -8.54774e-015 1.82882e-014
rhumerus -17.6988 9.20362 -80.3507
rradius 49.9452
rwrist -22.1165
rhand -14.0858 -27.9243
rfingers 7.12502
rthumb 12.0463 -57.5576
lclavicle -8.54774e-015 1.82882e-014
lhumerus -15.7739 -9.22475 80.1417
lradius 41.4885
lwrist 20.0973
lhand -23.6337 -12.0382
lfingers 7.12502
lthumb 2.8311 17.9227
rfemur -9.86276 -6.17395 9.65539
rtibia 52.5443
rfoot -9.5837 -12.6935
rtoes 0.950803
lfemur -38.2234 15.6755 -20.0524
ltibia 52.3235
lfoot -18.2445 3.66041
ltoes 5.62115
884
root 22.2037 16.0479 -0.896094 -923.157 96.5626 -929.089
lowerback 25.2281 3.02578 -2.6217
upperback 9.94375 4.0383 -0.703723
thorax -3.09481 2.27028 -0.377578
lowerneck -25.8826 -0.26894 -5.09429
upperneck 24.9543 1.6977 0.542885
head 12.5529 0.372947 1.37101
rclavicle 2.5842e-015 4.57205e-014
rhumerus -17.7542 9.4255 -80.5886
rradius 50.5757
rwrist -22.2622
rhand -14.1995 -27.3809
rfingers 7.12502
rthumb 11.9367 -57.0206
lclavicle 2.5842e-015 4.57205e-014
lhumerus -15.2829 -9.24065 79.8143
lradius 41.4009
lwrist 20.0977
lhand -23.6826 -11.6275
lfingers 7.12502
lthumb 2.78386 18.3341
rfemur -11.021 -6.96139 9.71394
rtibia 54.5777
rfoot -9.90544 -13.4199
rtoes 2.58386
lfemur -37.8448 15.4741 -20.0912
ltibia 52.6196
lfoot -18.7969 3.47362
ltoes 6.00464
885
root 22.287 16.0323 -0.970695 -922.05 96.7041 -928.041
lowerback 25.2706 3.09851 -2.96135
upperback 9.92791 4.04741 -0.742031
thorax -3.14837 2.26744 -0.232728
lowerneck -26.0011 -0.372252 -5.20602
upperneck 24.9406 1.52819 0.776789
head 12.5717 0.318895 1.44948
rclavicle -2.70347e-014 4.33351e-014
rhumerus -17.7151 9.50333 -80.7976
rradius 51.2708
rwrist -22.0835
rhand -13.9265 -27.7047
rfingers 7.12502
rthumb 12.2 -57.3289
lclavicle -2.70347e-014 4.33351e-014
lhumerus -14.7501 -9.326 79.501
lradius 41.4346
lwrist 20.2105
lhand -23.7899 -11.3545
lfingers 7.12502
lthumb 2.68024 18.6085
rfemur -12.6224 -7.49751 9.56256
rtibia 56.3169
rfoot -11.1261 -13.0242
rtoes 2.15106
lfemur -37.654 15.5276 -20.4046
ltibia 52.8819
lfoot -19.4912 3.35047
ltoes 6.3972
